<?xml version="1.0" encoding="utf-8"?>
<!-- Generator: Adobe Illustrator 19.2.1, SVG Export Plug-In . SVG Version: 6.00 Build 0)  -->
<svg version="1.1" id="Layer_2" xmlns="http://www.w3.org/2000/svg" xmlns:xlink="http://www.w3.org/1999/xlink" x="0px" y="0px"
	 viewBox="0 0 80.3 80.3" style="enable-background:new 0 0 80.3 80.3;" xml:space="preserve">
<style type="text/css">
	.st0{fill:#EB6A5C;}
	.st1{fill:#552F2F;}
	.st2{fill:#55AB99;}
	.st3{fill:#2F4555;}
	.st4{fill:#FFFFFF;}
	.st5{fill:#ED6B5A;}
	.st6{fill:#0C2C48;}
	.st7{fill:#F1CC4B;}
	.st8{clip-path:url(#SVGID_2_);}
	.st9{clip-path:url(#SVGID_2_);fill:#F6A09C;}
	.st10{fill:#50646F;}
	.st11{fill:#FCA886;}
	.st12{fill:#EDAB7E;}
	.st13{fill:#332319;}
	.st14{fill:#E07E45;}
	.st15{fill:#FF8F8F;}
	.st16{fill:#A6D1D9;}
	.st17{fill:#628185;}
	.st18{fill:#BABABA;}
	.st19{fill:#698391;}
	.st20{opacity:0.41;fill:#FFFFFF;}
	.st21{fill:#F6A09C;}
	.st22{fill:#FFF3C9;}
	.st23{fill:#2384AB;}
	.st24{fill:#BABFC5;}
	.st25{clip-path:url(#SVGID_4_);}
	.st26{fill:#6EB9E0;}
	.st27{fill:#F8A06D;}
	.st28{fill:#A3B9C4;}
	.st29{fill:#3B4A52;}
	.st30{clip-path:url(#SVGID_6_);}
	.st31{clip-path:url(#SVGID_8_);fill:#F6A09C;}
	.st32{opacity:0.21;fill:#FFFFFF;}
	.st33{clip-path:url(#SVGID_10_);fill:#F6A09C;}
	.st34{clip-path:url(#SVGID_12_);}
	.st35{fill:#FFD3B5;}
	.st36{fill:#BFD9E6;}
	.st37{fill:#798287;}
	.st38{fill:#A4A8AD;}
	.st39{fill:#FFD6BA;}
	.st40{fill:none;stroke:#0C2C48;stroke-width:1.4;stroke-miterlimit:10;}
</style>
<g>
	<circle class="st23" cx="40.2" cy="40.2" r="40.2"/>
	<g>
		<g>
			<g>
				<polygon class="st5" points="64.1,67.6 20.5,67.6 20.5,12.8 52,12.8 64.1,25.7 				"/>
				<polygon class="st21" points="64.1,25.7 52,25.7 52,12.8 				"/>
			</g>
			<g>
				<g>
					<rect x="25.5" y="45.4" class="st6" width="26.6" height="1.6"/>
				</g>
				<g>
					<rect x="25.5" y="51.9" class="st6" width="26.6" height="1.6"/>
				</g>
				<g>
					<rect x="25.5" y="58.5" class="st6" width="26.6" height="1.6"/>
				</g>
				<g>
					<rect x="25.5" y="19.2" class="st6" width="26.6" height="1.6"/>
				</g>
				<g>
					<rect x="25.5" y="25.8" class="st6" width="26.6" height="1.6"/>
				</g>
				<g>
					<rect x="25.5" y="32.3" class="st6" width="26.6" height="1.6"/>
				</g>
				<g>
					<rect x="25.5" y="38.8" class="st6" width="26.6" height="1.6"/>
				</g>
			</g>
		</g>
		<g>
			<g>
				<path class="st4" d="M69.7,57.7c0,0.4-0.4,0.8-0.8,0.8H45c-0.4,0-0.8-0.4-0.8-0.8v-14c0-0.4,0.4-0.8,0.8-0.8h23.9
					c0.4,0,0.8,0.4,0.8,0.8V57.7z"/>
				<g>
					<g>
						<polygon class="st4" points="39.2,42.9 45.3,48.1 45.3,42.9 						"/>
					</g>
				</g>
			</g>
		</g>
		<g>
			<g>
				<path class="st7" d="M10.6,38.2c0,0.3,0.3,0.6,0.6,0.6h18.7c0.3,0,0.6-0.3,0.6-0.6v-11c0-0.3-0.3-0.6-0.6-0.6H11.2
					c-0.3,0-0.6,0.3-0.6,0.6V38.2z"/>
				<g>
					<g>
						<polygon class="st7" points="34.5,26.6 29.7,30.6 29.7,26.6 						"/>
					</g>
				</g>
			</g>
		</g>
		<rect x="12.2" y="28.2" class="st7" width="16.3" height="1.4"/>
		<g>
			<g>
				<path class="st6" d="M15.4,32.7c0-0.7,0.5-1.2,1.1-1.2c0.7,0,1.1,0.5,1.1,1.2c0,0.7-0.4,1.2-1.1,1.2
					C15.9,33.8,15.4,33.3,15.4,32.7z"/>
			</g>
			<g>
				<path class="st6" d="M19.3,32.7c0-0.7,0.5-1.2,1.1-1.2c0.7,0,1.1,0.5,1.1,1.2c0,0.7-0.4,1.2-1.1,1.2
					C19.7,33.8,19.3,33.3,19.3,32.7z"/>
			</g>
			<g>
				<path class="st6" d="M23.1,32.7c0-0.7,0.5-1.2,1.1-1.2c0.6,0,1.1,0.5,1.1,1.2c0,0.7-0.4,1.2-1.1,1.2
					C23.6,33.8,23.1,33.3,23.1,32.7z"/>
			</g>
		</g>
		<g>
			<g>
				<path class="st6" d="M51.2,51.7c0-0.9,0.6-1.5,1.4-1.5c0.8,0,1.4,0.6,1.4,1.5c0,0.9-0.6,1.5-1.5,1.5
					C51.8,53.2,51.2,52.6,51.2,51.7z"/>
			</g>
			<g>
				<path class="st6" d="M56.1,51.7c0-0.9,0.6-1.5,1.4-1.5c0.8,0,1.4,0.6,1.4,1.5c0,0.9-0.6,1.5-1.5,1.5
					C56.7,53.2,56.1,52.6,56.1,51.7z"/>
			</g>
			<g>
				<path class="st6" d="M61.1,51.7c0-0.9,0.6-1.5,1.4-1.5c0.8,0,1.4,0.6,1.4,1.5c0,0.9-0.6,1.5-1.5,1.5
					C61.7,53.2,61.1,52.6,61.1,51.7z"/>
			</g>
		</g>
	</g>
</g>
</svg>
